
<svg xmlns="http://www.w3.org/2000/svg" aria-hidden="true" style="position:absolute;width:0;height:0;overflow:hidden">
  <defs>
    <symbol id="icon-ac" viewBox="0 0 32 32">
      <path d="M15.625 1.5C14.7962 1.5 14.0013 1.82924 13.4153 2.41529C12.8292 3.00134 12.5 3.7962 12.5 4.625C12.5 4.79076 12.4342 4.94973 12.3169 5.06694C12.1997 5.18415 12.0408 5.25 11.875 5.25C11.7092 5.25 11.5503 5.18415 11.4331 5.06694C11.3158 4.94973 11.25 4.79076 11.25 4.625C11.25 3.75971 11.5066 2.91385 11.9873 2.19438C12.4681 1.47492 13.1513 0.91416 13.9508 0.583027C14.7502 0.251894 15.6299 0.165254 16.4785 0.334064C17.3272 0.502875 18.1067 0.919553 18.7186 1.53141C19.3304 2.14326 19.7471 2.92281 19.9159 3.77148C20.0847 4.62015 19.9981 5.49981 19.667 6.29924C19.3358 7.09867 18.7751 7.78195 18.0556 8.26268C17.3362 8.74341 16.4903 9 15.625 9H0.625C0.45924 9 0.300269 8.93415 0.183058 8.81694C0.065848 8.69973 0 8.54076 0 8.375C0 8.20924 0.065848 8.05027 0.183058 7.93306C0.300269 7.81585 0.45924 7.75 0.625 7.75H15.625C16.4538 7.75 17.2487 7.42076 17.8347 6.83471C18.4208 6.24866 18.75 5.4538 18.75 4.625C18.75 3.7962 18.4208 3.00134 17.8347 2.41529C17.2487 1.82924 16.4538 1.5 15.625 1.5ZM6.875 2.75C6.54348 2.75 6.22554 2.8817 5.99112 3.11612C5.7567 3.35054 5.625 3.66848 5.625 4C5.625 4.16576 5.55915 4.32473 5.44194 4.44194C5.32473 4.55915 5.16576 4.625 5 4.625C4.83424 4.625 4.67527 4.55915 4.55806 4.44194C4.44085 4.32473 4.375 4.16576 4.375 4C4.375 3.50555 4.52162 3.0222 4.79633 2.61107C5.07103 2.19995 5.46148 1.87952 5.91829 1.6903C6.37511 1.50108 6.87777 1.45157 7.36273 1.54804C7.84768 1.6445 8.29314 1.8826 8.64277 2.23223C8.9924 2.58186 9.2305 3.02732 9.32696 3.51227C9.42343 3.99723 9.37392 4.49989 9.1847 4.95671C8.99548 5.41352 8.67505 5.80397 8.26393 6.07867C7.8528 6.35338 7.36945 6.5 6.875 6.5H0.625C0.45924 6.5 0.300269 6.43415 0.183058 6.31694C0.065848 6.19973 0 6.04076 0 5.875C0 5.70924 0.065848 5.55027 0.183058 5.43306C0.300269 5.31585 0.45924 5.25 0.625 5.25H6.875C7.20652 5.25 7.52446 5.1183 7.75888 4.88388C7.9933 4.64946 8.125 4.33152 8.125 4C8.125 3.66848 7.9933 3.35054 7.75888 3.11612C7.52446 2.8817 7.20652 2.75 6.875 2.75ZM0 10.875C0 10.7092 0.065848 10.5503 0.183058 10.4331C0.300269 10.3158 0.45924 10.25 0.625 10.25H13.1775C13.9192 10.25 14.6442 10.4699 15.2609 10.882C15.8776 11.294 16.3582 11.8797 16.642 12.5649C16.9259 13.2502 17.0001 14.0042 16.8554 14.7316C16.7108 15.459 16.3536 16.1272 15.8292 16.6517C15.3047 17.1761 14.6365 17.5333 13.9091 17.6779C13.1817 17.8226 12.4277 17.7484 11.7424 17.4645C11.0572 17.1807 10.4715 16.7001 10.0595 16.0834C9.64743 15.4667 9.4275 14.7417 9.4275 14C9.4275 13.8342 9.49335 13.6753 9.61056 13.5581C9.72777 13.4408 9.88674 13.375 10.0525 13.375C10.2183 13.375 10.3772 13.4408 10.4944 13.5581C10.6117 13.6753 10.6775 13.8342 10.6775 14C10.6775 14.4945 10.8241 14.9778 11.0988 15.3889C11.3735 15.8 11.764 16.1205 12.2208 16.3097C12.6776 16.4989 13.1803 16.5484 13.6652 16.452C14.1502 16.3555 14.5956 16.1174 14.9453 15.7678C15.2949 15.4181 15.533 14.9727 15.6295 14.4877C15.7259 14.0028 15.6764 13.5001 15.4872 13.0433C15.298 12.5865 14.9775 12.196 14.5664 11.9213C14.1553 11.6466 13.672 11.5 13.1775 11.5H0.625C0.45924 11.5 0.300269 11.4342 0.183058 11.3169C0.065848 11.1997 0 11.0408 0 10.875Z" fill="#101828"/>
    </symbol>
    <symbol id="icon-aut" viewBox="0 0 32 32">
      <path fill-rule="evenodd" clip-rule="evenodd" d="M7.5 2.375C7.5 1.87772 7.69754 1.40081 8.04917 1.04917C8.40081 0.697544 8.87772 0.5 9.375 0.5H10.625C11.1223 0.5 11.5992 0.697544 11.9508 1.04917C12.3025 1.40081 12.5 1.87772 12.5 2.375V3.625C12.5 4.12228 12.3025 4.59919 11.9508 4.95083C11.5992 5.30246 11.1223 5.5 10.625 5.5V6.75H17.5C17.6658 6.75 17.8247 6.81585 17.9419 6.93306C18.0592 7.05027 18.125 7.20924 18.125 7.375V8.625C18.125 8.79076 18.0592 8.94973 17.9419 9.06694C17.8247 9.18415 17.6658 9.25 17.5 9.25C17.3342 9.25 17.1753 9.18415 17.0581 9.06694C16.9408 8.94973 16.875 8.79076 16.875 8.625V8H10.625V8.625C10.625 8.79076 10.5592 8.94973 10.4419 9.06694C10.3247 9.18415 10.1658 9.25 10 9.25C9.83424 9.25 9.67527 9.18415 9.55806 9.06694C9.44085 8.94973 9.375 8.79076 9.375 8.625V8H3.125V8.625C3.125 8.79076 3.05915 8.94973 2.94194 9.06694C2.82473 9.18415 2.66576 9.25 2.5 9.25C2.33424 9.25 2.17527 9.18415 2.05806 9.06694C1.94085 8.94973 1.875 8.79076 1.875 8.625V7.375C1.875 7.20924 1.94085 7.05027 2.05806 6.93306C2.17527 6.81585 2.33424 6.75 2.5 6.75H9.375V5.5C8.87772 5.5 8.40081 5.30246 8.04917 4.95083C7.69754 4.59919 7.5 4.12228 7.5 3.625V2.375ZM10.625 4.25C10.7908 4.25 10.9497 4.18415 11.0669 4.06694C11.1842 3.94973 11.25 3.79076 11.25 3.625V2.375C11.25 2.20924 11.1842 2.05027 11.0669 1.93306C10.9497 1.81585 10.7908 1.75 10.625 1.75H9.375C9.20924 1.75 9.05027 1.81585 8.93306 1.93306C8.81585 2.05027 8.75 2.20924 8.75 2.375V3.625C8.75 3.79076 8.81585 3.94973 8.93306 4.06694C9.05027 4.18415 9.20924 4.25 9.375 4.25H10.625ZM0 12.375C0 11.8777 0.197544 11.4008 0.549175 11.0492C0.900805 10.6975 1.37772 10.5 1.875 10.5H3.125C3.62228 10.5 4.09919 10.6975 4.45083 11.0492C4.80246 11.4008 5 11.8777 5 12.375V13.625C5 14.1223 4.80246 14.5992 4.45083 14.9508C4.09919 15.3025 3.62228 15.5 3.125 15.5H1.875C1.37772 15.5 0.900805 15.3025 0.549175 14.9508C0.197544 14.5992 0 14.1223 0 13.625L0 12.375ZM1.875 11.75C1.70924 11.75 1.55027 11.8158 1.43306 11.9331C1.31585 12.0503 1.25 12.2092 1.25 12.375V13.625C1.25 13.7908 1.31585 13.9497 1.43306 14.0669C1.55027 14.1842 1.70924 14.25 1.875 14.25H3.125C3.29076 14.25 3.44973 14.1842 3.56694 14.0669C3.68415 13.9497 3.75 13.7908 3.75 13.625V12.375C3.75 12.2092 3.68415 12.0503 3.56694 11.9331C3.44973 11.8158 3.29076 11.75 3.125 11.75H1.875ZM7.5 12.375C7.5 11.8777 7.69754 11.4008 8.04917 11.0492C8.40081 10.6975 8.87772 10.5 9.375 10.5H10.625C11.1223 10.5 11.5992 10.6975 11.9508 11.0492C12.3025 11.4008 12.5 11.8777 12.5 12.375V13.625C12.5 14.1223 12.3025 14.5992 11.9508 14.9508C11.5992 15.3025 11.1223 15.5 10.625 15.5H9.375C8.87772 15.5 8.40081 15.3025 8.04917 14.9508C7.69754 14.5992 7.5 14.1223 7.5 13.625V12.375ZM9.375 11.75C9.20924 11.75 9.05027 11.8158 8.93306 11.9331C8.81585 12.0503 8.75 12.2092 8.75 12.375V13.625C8.75 13.7908 8.81585 13.9497 8.93306 14.0669C9.05027 14.1842 9.20924 14.25 9.375 14.25H10.625C10.7908 14.25 10.9497 14.1842 11.0669 14.0669C11.1842 13.9497 11.25 13.7908 11.25 13.625V12.375C11.25 12.2092 11.1842 12.0503 11.0669 11.9331C10.9497 11.8158 10.7908 11.75 10.625 11.75H9.375ZM15 12.375C15 11.8777 15.1975 11.4008 15.5492 11.0492C15.9008 10.6975 16.3777 10.5 16.875 10.5H18.125C18.6223 10.5 19.0992 10.6975 19.4508 11.0492C19.8025 11.4008 20 11.8777 20 12.375V13.625C20 14.1223 19.8025 14.5992 19.4508 14.9508C19.0992 15.3025 18.6223 15.5 18.125 15.5H16.875C16.3777 15.5 15.9008 15.3025 15.5492 14.9508C15.1975 14.5992 15 14.1223 15 13.625V12.375ZM16.875 11.75C16.7092 11.75 16.5503 11.8158 16.4331 11.9331C16.3158 12.0503 16.25 12.2092 16.25 12.375V13.625C16.25 13.7908 16.3158 13.9497 16.4331 14.0669C16.5503 14.1842 16.7092 14.25 16.875 14.25H18.125C18.2908 14.25 18.4497 14.1842 18.5669 14.0669C18.6842 13.9497 18.75 13.7908 18.75 13.625V12.375C18.75 12.2092 18.6842 12.0503 18.5669 11.9331C18.4497 11.8158 18.2908 11.75 18.125 11.75H16.875Z" fill="#101828"/>
    </symbol>
    <symbol id="icon-petrol" viewBox="0 0 32 32">
     <path d="M3.75 3.125C3.75 2.95924 3.81585 2.80027 3.93306 2.68306C4.05027 2.56585 4.20924 2.5 4.375 2.5H10.625C10.7908 2.5 10.9497 2.56585 11.0669 2.68306C11.1842 2.80027 11.25 2.95924 11.25 3.125V9.375C11.25 9.54076 11.1842 9.69973 11.0669 9.81694C10.9497 9.93415 10.7908 10 10.625 10H4.375C4.20924 10 4.05027 9.93415 3.93306 9.81694C3.81585 9.69973 3.75 9.54076 3.75 9.375V3.125Z" fill="#101828"/>
<path d="M1.25 2.5C1.25 1.83696 1.51339 1.20107 1.98223 0.732233C2.45107 0.263392 3.08696 0 3.75 0L11.25 0C11.913 0 12.5489 0.263392 13.0178 0.732233C13.4866 1.20107 13.75 1.83696 13.75 2.5V12.5C14.413 12.5 15.0489 12.7634 15.5178 13.2322C15.9866 13.7011 16.25 14.337 16.25 15V15.625C16.25 15.7908 16.3158 15.9497 16.4331 16.0669C16.5503 16.1842 16.7092 16.25 16.875 16.25C17.0408 16.25 17.1997 16.1842 17.3169 16.0669C17.4342 15.9497 17.5 15.7908 17.5 15.625V10H16.875C16.7092 10 16.5503 9.93415 16.4331 9.81694C16.3158 9.69973 16.25 9.54076 16.25 9.375V5.46875C16.25 5.30299 16.3158 5.14402 16.4331 5.02681C16.5503 4.9096 16.7092 4.84375 16.875 4.84375H18.7437C18.73 4.24875 18.6775 3.72625 18.4925 3.31625C18.3935 3.07785 18.2209 2.87729 18 2.74375C17.77 2.60625 17.42 2.5 16.875 2.5C16.7092 2.5 16.5503 2.43415 16.4331 2.31694C16.3158 2.19973 16.25 2.04076 16.25 1.875C16.25 1.70924 16.3158 1.55027 16.4331 1.43306C16.5503 1.31585 16.7092 1.25 16.875 1.25C17.58 1.24833 18.1683 1.38833 18.64 1.67C19.1187 1.955 19.4325 2.35875 19.6325 2.80375C20.0013 3.6225 20 4.635 20 5.405V9.37375C20.0002 9.45593 19.9841 9.53734 19.9528 9.61331C19.9214 9.68928 19.8754 9.75833 19.8174 9.8165C19.7593 9.87467 19.6904 9.92082 19.6145 9.95231C19.5386 9.98379 19.4572 10 19.375 10H18.75V15.625C18.75 16.1223 18.5525 16.5992 18.2008 16.9508C17.8492 17.3025 17.3723 17.5 16.875 17.5C16.3777 17.5 15.9008 17.3025 15.5492 16.9508C15.1975 16.5992 15 16.1223 15 15.625V15C15 14.6685 14.8683 14.3505 14.6339 14.1161C14.3995 13.8817 14.0815 13.75 13.75 13.75V18.75H14.375C14.5408 18.75 14.6997 18.8158 14.8169 18.9331C14.9342 19.0503 15 19.2092 15 19.375C15 19.5408 14.9342 19.6997 14.8169 19.8169C14.6997 19.9342 14.5408 20 14.375 20H0.625C0.45924 20 0.300269 19.9342 0.183058 19.8169C0.065848 19.6997 0 19.5408 0 19.375C0 19.2092 0.065848 19.0503 0.183058 18.9331C0.300269 18.8158 0.45924 18.75 0.625 18.75H1.25V2.5ZM12.5 2.5C12.5 2.16848 12.3683 1.85054 12.1339 1.61612C11.8995 1.3817 11.5815 1.25 11.25 1.25H3.75C3.41848 1.25 3.10054 1.3817 2.86612 1.61612C2.6317 1.85054 2.5 2.16848 2.5 2.5V18.75H12.5V2.5Z" fill="#101828"/>
    </symbol>
    <symbol id="icon-kitch" viewBox="0 0 32 32">
     <path fill-rule="evenodd" clip-rule="evenodd" d="M0.624998 7.5C0.531477 7.50004 0.439157 7.52106 0.354842 7.56152C0.270527 7.60198 0.196366 7.66085 0.137827 7.73378C0.0792885 7.80672 0.0378632 7.89186 0.016605 7.98293C-0.00465315 8.074 -0.00520222 8.16869 0.0149983 8.26L2.08 17.5525C2.23414 18.2466 2.62034 18.8673 3.17485 19.3123C3.72936 19.7573 4.41903 19.9998 5.13 20H12.37C13.081 19.9998 13.7706 19.7573 14.3251 19.3123C14.8797 18.8673 15.2659 18.2466 15.42 17.5525L15.5837 16.815C16.5399 16.9938 17.5281 16.7941 18.3398 16.2581C19.1515 15.722 19.7231 14.8915 19.934 13.9419C20.1449 12.9923 19.9785 11.9979 19.47 11.1686C18.9615 10.3394 18.1507 9.74018 17.2087 9.4975L17.485 8.26C17.5052 8.16869 17.5047 8.074 17.4834 7.98293C17.4621 7.89186 17.4207 7.80672 17.3622 7.73378C17.3036 7.66085 17.2295 7.60198 17.1452 7.56152C17.0608 7.52106 16.9685 7.50004 16.875 7.5H0.624998ZM16.25 15.625C16.1177 15.6251 15.9856 15.6146 15.855 15.5938L16.9387 10.7212C17.5169 10.8887 18.0152 11.259 18.3424 11.7642C18.6695 12.2694 18.8036 12.8756 18.7198 13.4717C18.6361 14.0677 18.3403 14.6135 17.8866 15.0091C17.433 15.4046 16.8519 15.6233 16.25 15.625ZM3.3 17.2812L1.40375 8.75H16.0962L14.2 17.2812C14.1076 17.6977 13.8759 18.0702 13.5432 18.3373C13.2104 18.6043 12.7966 18.7499 12.37 18.75H5.13C4.70338 18.7499 4.28955 18.6043 3.95684 18.3373C3.62413 18.0702 3.39243 17.6977 3.3 17.2812Z" fill="#101828"/>
<path d="M5.5 0.999999L5.49625 1.005L5.47875 1.02875C5.3878 1.1539 5.30271 1.28321 5.22375 1.41625C5.15667 1.5229 5.09776 1.63447 5.0475 1.75C5.015 1.825 5.005 1.865 5.00125 1.87875V1.88375C5.01567 1.99425 5.05452 2.10015 5.115 2.19375C5.20875 2.36 5.3375 2.53375 5.5 2.75L5.5125 2.765C5.66 2.9625 5.8375 3.19875 5.975 3.44375C6.115 3.69375 6.25 4.0125 6.25 4.375C6.25 4.61 6.16875 4.835 6.10125 4.9925C6.029 5.16009 5.94461 5.32219 5.84875 5.4775C5.75069 5.64141 5.64516 5.80075 5.5325 5.955L5.51 5.98625L5.50375 5.99625L5.50125 5.99875C5.40196 6.13152 5.25399 6.21942 5.0899 6.24309C4.9258 6.26677 4.75902 6.22429 4.62625 6.125C4.49348 6.02571 4.40558 5.87774 4.38191 5.71365C4.35823 5.54955 4.40071 5.38277 4.5 5.25L4.50375 5.245L4.52125 5.22125C4.6122 5.0961 4.69729 4.96679 4.77625 4.83375C4.84333 4.7271 4.90224 4.61553 4.9525 4.5C4.985 4.425 4.995 4.385 4.99875 4.37125C4.98544 4.25912 4.94698 4.15144 4.88625 4.05625C4.77022 3.86232 4.64117 3.67647 4.5 3.5L4.4875 3.485C4.31862 3.26913 4.16412 3.0424 4.025 2.80625C3.85475 2.52466 3.76003 2.2039 3.75 1.875C3.75 1.64 3.83125 1.415 3.89875 1.2575C3.9725 1.085 4.06625 0.914999 4.15125 0.772499C4.25055 0.609364 4.35604 0.450081 4.4675 0.294999L4.49875 0.251249C4.59804 0.118475 4.74601 0.0305821 4.9101 0.00690566C5.0742 -0.0167708 5.24098 0.0257087 5.37375 0.124999C5.50652 0.22429 5.59442 0.372258 5.61809 0.536352C5.64177 0.700446 5.59929 0.867225 5.5 0.999999ZM9.25 0.999999L9.24625 1.005L9.22875 1.02875C9.1378 1.1539 9.05271 1.28321 8.97375 1.41625C8.90667 1.5229 8.84776 1.63447 8.7975 1.75C8.765 1.825 8.755 1.865 8.75125 1.87875V1.88375C8.76567 1.99425 8.80452 2.10015 8.865 2.19375C8.95875 2.36 9.0875 2.53375 9.25 2.75L9.2625 2.765C9.41 2.9625 9.5875 3.19875 9.725 3.44375C9.865 3.69375 10 4.0125 10 4.375C10 4.61 9.91875 4.835 9.85125 4.9925C9.779 5.16009 9.69461 5.32219 9.59875 5.4775C9.50069 5.64141 9.39516 5.80075 9.2825 5.955L9.26 5.98625L9.25375 5.99625L9.25125 5.99875C9.15196 6.13152 9.00399 6.21942 8.8399 6.24309C8.6758 6.26677 8.50902 6.22429 8.37625 6.125C8.24348 6.02571 8.15558 5.87774 8.13191 5.71365C8.10823 5.54955 8.15071 5.38277 8.25 5.25L8.25375 5.245L8.27125 5.22125C8.3622 5.0961 8.44729 4.96679 8.52625 4.83375C8.59333 4.7271 8.65224 4.61553 8.7025 4.5C8.735 4.425 8.745 4.385 8.74875 4.37125C8.73544 4.25912 8.69698 4.15144 8.63625 4.05625C8.52022 3.86232 8.39117 3.67647 8.25 3.5L8.2375 3.485C8.06862 3.26913 7.91412 3.0424 7.775 2.80625C7.60475 2.52466 7.51003 2.2039 7.5 1.875C7.5 1.64 7.58125 1.415 7.64875 1.2575C7.7225 1.085 7.81625 0.914999 7.90125 0.772499C8.00055 0.609364 8.10604 0.450081 8.2175 0.294999L8.24875 0.251249C8.34804 0.118475 8.49601 0.0305821 8.6601 0.00690565C8.8242 -0.0167708 8.99098 0.0257087 9.12375 0.124999C9.25652 0.22429 9.34442 0.372258 9.36809 0.536352C9.39177 0.700446 9.34929 0.867225 9.25 0.999999ZM13 0.999999L12.9963 1.005L12.9788 1.02875C12.8878 1.1539 12.8027 1.28321 12.7238 1.41625C12.6567 1.5229 12.5978 1.63447 12.5475 1.75C12.515 1.825 12.505 1.865 12.5013 1.87875V1.88375C12.5157 1.99425 12.5545 2.10015 12.615 2.19375C12.7087 2.36 12.8375 2.53375 13 2.75L13.0125 2.765C13.16 2.9625 13.3375 3.19875 13.475 3.44375C13.615 3.69375 13.75 4.0125 13.75 4.375C13.75 4.61 13.6687 4.835 13.6012 4.9925C13.529 5.16009 13.4446 5.32219 13.3488 5.4775C13.2511 5.64139 13.146 5.80072 13.0338 5.955L13.01 5.98625L13.0037 5.99625L13.0013 5.99875C12.902 6.13152 12.754 6.21942 12.5899 6.24309C12.4258 6.26677 12.259 6.22429 12.1263 6.125C11.9935 6.02571 11.9056 5.87774 11.8819 5.71365C11.8582 5.54955 11.9007 5.38277 12 5.25L12.0037 5.245L12.0212 5.22125C12.1122 5.0961 12.1973 4.96679 12.2762 4.83375C12.3433 4.7271 12.4022 4.61553 12.4525 4.5C12.485 4.425 12.495 4.385 12.4987 4.37125C12.4854 4.25912 12.447 4.15144 12.3863 4.05625C12.2702 3.86232 12.1412 3.67647 12 3.5L11.9875 3.485C11.8186 3.26913 11.6641 3.0424 11.525 2.80625C11.3547 2.52466 11.26 2.2039 11.25 1.875C11.25 1.64 11.3313 1.415 11.3988 1.2575C11.4725 1.085 11.5663 0.914999 11.6512 0.772499C11.7505 0.609364 11.856 0.450081 11.9675 0.294999L11.9987 0.251249C12.098 0.118475 12.246 0.0305821 12.4101 0.00690565C12.5742 -0.0167708 12.741 0.0257087 12.8737 0.124999C13.0065 0.22429 13.0944 0.372258 13.1181 0.536352C13.1418 0.700446 13.0993 0.867225 13 0.999999Z" fill="#101828"/>
    </symbol>
    <symbol id="icon-tv" viewBox="0 0 32 32">
       <path d="M0 8C0 8 0 4 4 4H28C28 4 32 4 32 8V20C32 20 32 24 28 24H20C20 25.3333 20.1667 26.3333 20.5 27H22C22.2652 27 22.5196 27.1054 22.7071 27.2929C22.8946 27.4804 23 27.7348 23 28C23 28.2652 22.8946 28.5196 22.7071 28.7071C22.5196 28.8946 22.2652 29 22 29H10C9.73478 29 9.48043 28.8946 9.29289 28.7071C9.10536 28.5196 9 28.2652 9 28C9 27.7348 9.10536 27.4804 9.29289 27.2929C9.48043 27.1054 9.73478 27 10 27H11.5C11.8333 26.3333 12 25.3333 12 24H4C4 24 0 24 0 20V8ZM2.796 6.29C2.57644 6.44309 2.4012 6.65145 2.288 6.894C2.11952 7.24697 2.02168 7.62948 2 8.02V20C2 20.65 2.156 21.004 2.29 21.204C2.43 21.412 2.63133 21.5813 2.894 21.712C3.23168 21.8736 3.59663 21.9706 3.97 21.998L4.02 22H28C28.65 22 29.004 21.844 29.204 21.71C29.4236 21.5569 29.5988 21.3486 29.712 21.106C29.8736 20.7683 29.9706 20.4034 29.998 20.03L30 19.98V8C30 7.35 29.844 6.996 29.71 6.796C29.5569 6.57644 29.3486 6.4012 29.106 6.288C28.753 6.11952 28.3705 6.02168 27.98 6H4C3.35 6 2.996 6.156 2.796 6.29Z" fill="#101828" />
    </symbol>
    <symbol id="icon-van" viewBox="0 0 32 32">
       <path d="M12 2H2V30H12V2ZM30 2H20V12H30V2ZM30 20V30H20V20H30ZM0 2C0 1.46957 0.210714 0.960859 0.585786 0.585786C0.960859 0.210714 1.46957 0 2 0L12 0C12.5304 0 13.0391 0.210714 13.4142 0.585786C13.7893 0.960859 14 1.46957 14 2V30C14 30.5304 13.7893 31.0391 13.4142 31.4142C13.0391 31.7893 12.5304 32 12 32H2C1.46957 32 0.960859 31.7893 0.585786 31.4142C0.210714 31.0391 0 30.5304 0 30V2ZM18 2C18 1.46957 18.2107 0.960859 18.5858 0.585786C18.9609 0.210714 19.4696 0 20 0L30 0C30.5304 0 31.0391 0.210714 31.4142 0.585786C31.7893 0.960859 32 1.46957 32 2V12C32 12.5304 31.7893 13.0391 31.4142 13.4142C31.0391 13.7893 30.5304 14 30 14H20C19.4696 14 18.9609 13.7893 18.5858 13.4142C18.2107 13.0391 18 12.5304 18 12V2ZM20 18C19.4696 18 18.9609 18.2107 18.5858 18.5858C18.2107 18.9609 18 19.4696 18 20V30C18 30.5304 18.2107 31.0391 18.5858 31.4142C18.9609 31.7893 19.4696 32 20 32H30C30.5304 32 31.0391 31.7893 31.4142 31.4142C31.7893 31.0391 32 30.5304 32 30V20C32 19.4696 31.7893 18.9609 31.4142 18.5858C31.0391 18.2107 30.5304 18 30 18H20Z" fill="#101828" />
    </symbol>
     <symbol id="icon-bathroom" viewBox="0 0 32 32">
       <path d="M8 29.5C8 29.7967 7.91203 30.0867 7.7472 30.3334C7.58238 30.58 7.34811 30.7723 7.07403 30.8858C6.79994 30.9993 6.49834 31.0291 6.20737 30.9712C5.91639 30.9133 5.64912 30.7704 5.43934 30.5607C5.22956 30.3509 5.0867 30.0836 5.02882 29.7926C4.97094 29.5017 5.00065 29.2001 5.11418 28.926C5.22771 28.6519 5.41997 28.4176 5.66665 28.2528C5.91332 28.088 6.20333 28 6.5 28C6.89783 28 7.27936 28.158 7.56066 28.4393C7.84197 28.7206 8 29.1022 8 29.5ZM10.5 24C10.2033 24 9.91332 24.088 9.66665 24.2528C9.41997 24.4176 9.22771 24.6519 9.11418 24.926C9.00065 25.2001 8.97094 25.5017 9.02882 25.7926C9.0867 26.0836 9.22956 26.3509 9.43934 26.5607C9.64912 26.7704 9.91639 26.9133 10.2074 26.9712C10.4983 27.0291 10.7999 26.9993 11.074 26.8858C11.3481 26.7723 11.5824 26.58 11.7472 26.3334C11.912 26.0867 12 25.7967 12 25.5C12 25.1022 11.842 24.7206 11.5607 24.4393C11.2794 24.158 10.8978 24 10.5 24ZM2.5 24C2.20333 24 1.91332 24.088 1.66665 24.2528C1.41997 24.4176 1.22771 24.6519 1.11418 24.926C1.00065 25.2001 0.970945 25.5017 1.02882 25.7926C1.0867 26.0836 1.22956 26.3509 1.43934 26.5607C1.64912 26.7704 1.91639 26.9133 2.20737 26.9712C2.49834 27.0291 2.79994 26.9993 3.07403 26.8858C3.34811 26.7723 3.58238 26.58 3.74721 26.3334C3.91203 26.0867 4 25.7967 4 25.5C4 25.1022 3.84197 24.7206 3.56066 24.4393C3.27936 24.158 2.89783 24 2.5 24ZM6.5 20C6.20333 20 5.91332 20.088 5.66665 20.2528C5.41997 20.4176 5.22771 20.6519 5.11418 20.926C5.00065 21.2001 4.97094 21.5017 5.02882 21.7926C5.0867 22.0836 5.22956 22.3509 5.43934 22.5607C5.64912 22.7704 5.91639 22.9133 6.20737 22.9712C6.49834 23.0291 6.79994 22.9993 7.07403 22.8858C7.34811 22.7723 7.58238 22.58 7.7472 22.3334C7.91203 22.0867 8 21.7967 8 21.5C8 21.1022 7.84197 20.7206 7.56066 20.4393C7.27936 20.158 6.89783 20 6.5 20ZM32 5C32 5.26522 31.8946 5.51957 31.7071 5.70711C31.5196 5.89464 31.2652 6 31 6H27.4137L23.9325 9.4825L21.225 25.3312C21.1641 25.6933 21.0046 26.0317 20.7642 26.3091C20.5237 26.5866 20.2115 26.7925 19.8617 26.9043C19.512 27.0161 19.1382 27.0295 18.7814 26.943C18.4245 26.8564 18.0984 26.6733 17.8388 26.4137L5.58875 14.1637C5.32875 13.9039 5.14541 13.5774 5.05887 13.2201C4.97233 12.8628 4.98593 12.4886 5.09817 12.1385C5.21042 11.7885 5.41698 11.4761 5.69515 11.2358C5.97333 10.9955 6.31236 10.8365 6.675 10.7763L22.5175 8.0675L26.2925 4.2925C26.3854 4.19967 26.4958 4.12605 26.6171 4.07586C26.7385 4.02568 26.8686 3.9999 27 4H31C31.2652 4 31.5196 4.10536 31.7071 4.29289C31.8946 4.48043 32 4.73478 32 5ZM21.7763 10.2238L7 12.75L19.25 25L21.7763 10.2238Z" fill="#101828" />
    </symbol>
    <symbol id="icon-star" viewBox="0 0 32 32">
       <path d="M6.20021 4.69703L8 1.28579L9.79979 4.69703C9.95896 4.9987 10.2491 5.20947 10.5851 5.26762L14.3856 5.92519L11.6975 8.69103C11.4598 8.93563 11.3489 9.27666 11.3975 9.61427L11.9465 13.4319L8.48537 11.7301C8.17929 11.5795 7.82071 11.5796 7.51463 11.7301L4.05348 13.4319L4.6025 9.61427C4.65105 9.27666 4.54024 8.93563 4.30252 8.69103L1.6144 5.92519L5.41486 5.26762C5.75095 5.20947 6.04104 4.9987 6.20021 4.69703ZM14.5177 5.78928L14.5175 5.78947L14.5177 5.78928ZM3.8834 13.5155C3.88344 13.5155 3.88349 13.5155 3.88353 13.5155L3.8834 13.5155Z" fill="#FFC531" stroke="#FFC531" stroke-width="1.2" />
    </symbol>
    <symbol id="icon-city" viewBox="0 0 32 32">
         <path fill-rule="evenodd" clip-rule="evenodd" d="M15.817 0.112823C15.8743 0.159759 15.9204 0.218822 15.952 0.285748C15.9837 0.352674 16 0.425792 16 0.499823V14.4998C15.9999 14.6154 15.9598 14.7273 15.8866 14.8167C15.8133 14.906 15.7113 14.9672 15.598 14.9898L10.598 15.9898C10.5333 16.0028 10.4667 16.0028 10.402 15.9898L5.5 15.0098L0.598 15.9898C0.525489 16.0043 0.450665 16.0025 0.378921 15.9846C0.307176 15.9667 0.240296 15.9331 0.183099 15.8863C0.125903 15.8394 0.0798134 15.7804 0.0481518 15.7136C0.0164902 15.6468 4.46527e-05 15.5738 0 15.4998L0 1.49982C6.9782e-05 1.38428 0.0401561 1.27232 0.113443 1.18299C0.186731 1.09366 0.288695 1.03247 0.402 1.00982L5.402 0.00982311C5.46669 -0.00310763 5.53331 -0.00310763 5.598 0.00982311L10.5 0.989823L15.402 0.00982311C15.4745 -0.00476108 15.5493 -0.00308756 15.6211 0.0147231C15.6928 0.0325338 15.7597 0.0660382 15.817 0.112823ZM10 1.90982L6 1.10982V14.0898L10 14.8898V1.90982ZM11 14.8898L15 14.0898V1.10982L11 1.90982V14.8898ZM5 14.0898V1.10982L1 1.90982V14.8898L5 14.0898Z" fill="#101828" />
    </symbol>
    <symbol id="icon-truckLogo" viewBox="0 0 32 32">
        <path d="M135.393 7.1875H131.785C131.766 6.96497 131.688 6.77321 131.55 6.61222C131.413 6.45124 131.235 6.32813 131.018 6.2429C130.804 6.15294 130.568 6.10796 130.307 6.10796C129.971 6.10796 129.682 6.16951 129.441 6.29262C129.199 6.41572 129.081 6.59091 129.086 6.81819C129.081 6.97917 129.15 7.12832 129.292 7.26563C129.438 7.40294 129.72 7.50947 130.137 7.58523L132.353 7.98296C133.47 8.18656 134.301 8.52983 134.846 9.01279C135.395 9.49101 135.672 10.1326 135.677 10.9375C135.672 11.714 135.44 12.3887 134.981 12.9617C134.526 13.5298 133.903 13.9702 133.113 14.2827C132.327 14.5904 131.429 14.7443 130.421 14.7443C128.754 14.7443 127.45 14.4034 126.508 13.7216C125.57 13.0398 125.047 12.1402 124.938 11.0227H128.83C128.882 11.3684 129.053 11.6359 129.341 11.8253C129.635 12.0099 130.004 12.1023 130.449 12.1023C130.809 12.1023 131.105 12.0407 131.337 11.9176C131.574 11.7945 131.695 11.6193 131.699 11.3921C131.695 11.1837 131.59 11.018 131.387 10.8949C131.188 10.7718 130.875 10.6724 130.449 10.5966L128.518 10.2557C127.405 10.0616 126.572 9.69224 126.018 9.14773C125.464 8.60322 125.189 7.90247 125.194 7.04546C125.189 6.28788 125.388 5.64631 125.79 5.12074C126.197 4.59044 126.777 4.18798 127.53 3.91336C128.288 3.634 129.185 3.49432 130.222 3.49432C131.799 3.49432 133.042 3.82103 133.951 4.47444C134.865 5.12785 135.345 6.0322 135.393 7.1875Z" fill="#475467" />
        <path d="M116.415 11.9602L116.443 7.30114H116.955L119.597 3.63636H124L119.568 9.34659H118.46L116.415 11.9602ZM112.892 14.5455V0H116.813V14.5455H112.892ZM119.625 14.5455L117.125 10.2273L119.682 7.44318L124.114 14.5455H119.625Z" fill="#475467" />
        <path d="M105.619 14.7443C104.435 14.7443 103.422 14.5099 102.579 14.0412C101.736 13.5677 101.09 12.9096 100.64 12.0668C100.19 11.2192 99.9653 10.2367 99.9653 9.11932C99.9653 8.0019 100.19 7.02178 100.64 6.17898C101.09 5.33144 101.736 4.6733 102.579 4.20455C103.422 3.73107 104.435 3.49432 105.619 3.49432C106.689 3.49432 107.614 3.68845 108.396 4.07671C109.182 4.46023 109.79 5.00474 110.221 5.71023C110.652 6.41099 110.87 7.23485 110.874 8.18182H107.238C107.186 7.60891 107.02 7.1733 106.741 6.875C106.466 6.57197 106.111 6.42046 105.676 6.42046C105.335 6.42046 105.036 6.51989 104.781 6.71875C104.525 6.91288 104.326 7.20881 104.184 7.60654C104.042 7.99953 103.971 8.49432 103.971 9.09091C103.971 9.6875 104.042 10.1847 104.184 10.5824C104.326 10.9754 104.525 11.2713 104.781 11.4702C105.036 11.6643 105.335 11.7614 105.676 11.7614C105.964 11.7614 106.22 11.6951 106.443 11.5625C106.665 11.4252 106.845 11.2263 106.982 10.9659C107.124 10.7008 107.21 10.3788 107.238 10H110.874C110.86 10.9612 110.64 11.7992 110.214 12.5142C109.788 13.2244 109.184 13.7737 108.403 14.1619C107.626 14.5502 106.698 14.7443 105.619 14.7443Z" fill="#475467" />
        <path d="M94.0485 9.77272V3.63635H97.9689V14.5454H94.2473V12.4716H94.1337C93.897 13.1676 93.4827 13.7121 92.8908 14.1051C92.299 14.4934 91.5958 14.6875 90.7814 14.6875C90.0191 14.6875 89.3515 14.5123 88.7786 14.1619C88.2104 13.8115 87.7677 13.3286 87.4505 12.7131C87.138 12.0975 86.9793 11.392 86.9746 10.5966V3.63635H90.8951V9.77272C90.8998 10.3125 91.0371 10.7363 91.307 11.044C91.5816 11.3518 91.9651 11.5057 92.4576 11.5057C92.7843 11.5057 93.066 11.437 93.3027 11.2997C93.5442 11.1577 93.7289 10.9588 93.8567 10.7031C93.9893 10.4427 94.0532 10.1326 94.0485 9.77272Z" fill="#475467" />
        <path d="M77.9028 14.5455V3.63637H81.7097V5.71023H81.8233C82.0222 4.94319 82.337 4.38211 82.7679 4.02699C83.2035 3.67188 83.7125 3.49432 84.2949 3.49432C84.4653 3.49432 84.6334 3.50853 84.7991 3.53694C84.9696 3.56061 85.1329 3.59612 85.2892 3.64347V6.98864C85.0951 6.92235 84.856 6.87264 84.5719 6.83949C84.2878 6.80635 84.0439 6.78978 83.8403 6.78978C83.4568 6.78978 83.1112 6.87737 82.8034 7.05256C82.5004 7.22302 82.2613 7.46449 82.0861 7.77699C81.9109 8.08476 81.8233 8.44698 81.8233 8.86364V14.5455H77.9028Z" fill="#475467" />
        <path d="M64.4507 3.18182V0H77.0927V3.18182H72.7177V14.5455H68.8257V3.18182H64.4507Z" fill="#475467" />
        <path d="M62.5079 0V14.5455H58.5874V0H62.5079Z" fill="#101828" />
        <path d="M51.2466 14.7443C50.0818 14.7443 49.078 14.5218 48.2352 14.0767C47.3971 13.6269 46.7508 12.983 46.2963 12.1449C45.8465 11.3021 45.6216 10.2936 45.6216 9.11932C45.6216 7.99243 45.8489 7.00758 46.3034 6.16478C46.7579 5.32197 47.3995 4.6662 48.2281 4.19745C49.0567 3.7287 50.0345 3.49432 51.1614 3.49432C51.9852 3.49432 52.731 3.62216 53.3986 3.87785C54.0662 4.13353 54.6367 4.50521 55.1102 4.9929C55.5837 5.47586 55.9483 6.06298 56.204 6.75427C56.4597 7.44555 56.5875 8.22444 56.5875 9.09091V10H46.8432V7.84091H52.9795C52.9748 7.52841 52.8943 7.25379 52.7381 7.01705C52.5865 6.77557 52.3806 6.58855 52.1202 6.45597C51.8645 6.31866 51.5733 6.25 51.2466 6.25C50.9293 6.25 50.6382 6.31866 50.373 6.45597C50.1079 6.58855 49.8948 6.77321 49.7338 7.00995C49.5775 7.24669 49.4947 7.52368 49.4852 7.84091V10.1705C49.4852 10.5208 49.5586 10.8333 49.7054 11.108C49.8522 11.3826 50.0629 11.598 50.3375 11.7543C50.6121 11.9105 50.9436 11.9886 51.3318 11.9886C51.6017 11.9886 51.8479 11.9508 52.0704 11.875C52.2977 11.7992 52.4918 11.6903 52.6528 11.5483C52.8138 11.4015 52.9322 11.2263 53.0079 11.0227H56.5875C56.4644 11.7803 56.1732 12.4385 55.7139 12.9972C55.2546 13.5511 54.6462 13.982 53.8886 14.2898C53.1358 14.5928 52.2551 14.7443 51.2466 14.7443Z" fill="#101828" />
        <path d="M44.8364 3.63635L41.1717 14.5454H36.6262L32.9614 3.63635H37.0807L38.8421 10.8523H38.9557L40.7171 3.63635H44.8364Z" fill="#101828" />
        <path d="M25.056 14.7159C24.36 14.7159 23.7445 14.6023 23.2094 14.375C22.6791 14.143 22.2625 13.7926 21.9594 13.3239C21.6564 12.8551 21.5049 12.2585 21.5049 11.5341C21.5049 10.9375 21.6067 10.4285 21.8103 10.0071C22.0139 9.58097 22.298 9.23296 22.6626 8.96307C23.0271 8.69319 23.4509 8.48722 23.9339 8.34518C24.4216 8.20313 24.9471 8.1108 25.5106 8.06819C26.1214 8.02084 26.6114 7.96402 26.9807 7.89773C27.3548 7.82671 27.6247 7.72964 27.7904 7.60654C27.9561 7.4787 28.039 7.31061 28.039 7.10228V7.07387C28.039 6.78978 27.9301 6.57197 27.7123 6.42046C27.4945 6.26894 27.2151 6.19319 26.8742 6.19319C26.5001 6.19319 26.1948 6.27605 25.958 6.44177C25.726 6.60275 25.5863 6.85133 25.539 7.1875H21.931C21.9784 6.52463 22.1891 5.91383 22.5631 5.35512C22.9419 4.79167 23.4935 4.34186 24.218 4.00569C24.9424 3.66478 25.8467 3.49432 26.931 3.49432C27.7123 3.49432 28.413 3.58665 29.0333 3.77131C29.6536 3.95124 30.1815 4.20455 30.6171 4.53125C31.0527 4.85322 31.3841 5.23201 31.6114 5.66762C31.8434 6.09849 31.9594 6.56724 31.9594 7.07387V14.5455H28.2947V13.0114H28.2094C27.9916 13.4186 27.7265 13.7476 27.414 13.9986C27.1062 14.2495 26.7535 14.4318 26.3557 14.5455C25.9627 14.6591 25.5295 14.7159 25.056 14.7159ZM26.3344 12.2443C26.6327 12.2443 26.9121 12.1828 27.1725 12.0597C27.4376 11.9366 27.6531 11.759 27.8188 11.527C27.9845 11.295 28.0674 11.0133 28.0674 10.6818V9.77273C27.9632 9.81535 27.8519 9.85559 27.7336 9.89347C27.6199 9.93135 27.4968 9.96686 27.3643 10C27.2364 10.0331 27.0991 10.0639 26.9523 10.0923C26.8103 10.1207 26.6611 10.1468 26.5049 10.1705C26.2019 10.2178 25.9533 10.2959 25.7591 10.4048C25.5697 10.509 25.4277 10.6392 25.333 10.7955C25.243 10.947 25.1981 11.1174 25.1981 11.3068C25.1981 11.6099 25.3046 11.8419 25.5177 12.0028C25.7307 12.1638 26.003 12.2443 26.3344 12.2443Z" fill="#101828" />
        <path d="M13.4521 14.5455V3.63637H17.259V5.71023H17.3726C17.5715 4.94319 17.8863 4.38211 18.3172 4.02699C18.7528 3.67188 19.2618 3.49432 19.8442 3.49432C20.0146 3.49432 20.1827 3.50853 20.3485 3.53694C20.5189 3.56061 20.6823 3.59612 20.8385 3.64347V6.98864C20.6444 6.92235 20.4053 6.87264 20.1212 6.83949C19.8371 6.80635 19.5932 6.78978 19.3896 6.78978C19.0061 6.78978 18.6605 6.87737 18.3527 7.05256C18.0497 7.22302 17.8106 7.46449 17.6354 7.77699C17.4602 8.08476 17.3726 8.44698 17.3726 8.86364V14.5455H13.4521Z" fill="#101828" />
        <path d="M0 3.18182V0H12.642V3.18182H8.26705V14.5455H4.375V3.18182H0Z" fill="#101828" />
    </symbol>
   
  </defs>
</svg>

 